<svg xmlns="http://www.w3.org/2000/svg" viewBox="-266.2 389.7 60 60">
	<title>CV</title>
	<path d="M-236.2 389.7c-16.6 0-30 13.4-30 30s13.4 30 30 30 30-13.4 30-30-13.4-30-30-30zm-.5 33.8c-.3.7-.7 1.4-1.3 2-.6.6-1.3 1.1-2.1 1.4-.8.4-1.8.5-2.9.5-1.2 0-2.3-.2-3.2-.6-.9-.4-1.7-.9-2.3-1.6-.6-.7-1.1-1.5-1.5-2.5-.3-.9-.5-2-.5-3.1s.2-2.1.5-3.2c.4-1 .9-1.8 1.5-2.4.7-.7 1.4-1.2 2.4-1.6.9-.4 1.9-.6 3.1-.6 2 0 3.6.5 4.7 1.5s1.8 2.5 2 4.3h-4.4c0-.1-.1-.3-.1-.6-.1-.2-.2-.5-.4-.7-.2-.2-.4-.4-.7-.6-.3-.2-.7-.3-1.1-.3-.5 0-1 .1-1.3.3s-.6.5-.9.9c-.2.4-.4.8-.5 1.3-.1.5-.1 1-.1 1.5s0 1 .1 1.5.2.9.5 1.3c.2.4.5.7.9.9.4.2.8.3 1.3.3.3 0 .7-.1 1-.2.3-.1.5-.3.7-.5.2-.2.4-.5.5-.8.1-.3.2-.6.3-1h4.5c-.3 1.2-.4 1.9-.7 2.6zm10.3 3.6h-5.1l-4.4-14.8h4.6l2.4 9 2.4-9h4.7l-4.6 14.8z"/>
</svg>