<svg xmlns="http://www.w3.org/2000/svg" xmlns:xlink="http://www.w3.org/1999/xlink" width="190" height="45" version="1.1" viewBox="0 0 190 45">
    <title>
        Folded design
    </title>
    <path fill="#333333" d="M 13.4648 21.625C 13.957 20.6406 14.4492 19.668 14.9414 18.707C 15.4336 17.7227 15.8789 16.8086 16.2773 15.9648C 16.6758 15.1211 17.0156 14.3711 17.2969 13.7148C 17.5781 13.0352 17.7422 12.4961 17.7891 12.0977C 17.8359 11.6758 17.8008 11.3125 17.6836 11.0078C 17.5664 10.7031 17.3672 10.457 17.0859 10.2695C 16.8281 10.082 16.5117 9.94141 16.1367 9.84766C 15.7852 9.73047 15.3867 9.66016 14.9414 9.63672C 14.168 9.58984 13.2422 9.61328 12.1641 9.70703C 11.1094 9.77734 10.0898 9.92969 9.10547 10.1641C 8.12109 10.375 7.26562 10.6797 6.53906 11.0781C 5.83594 11.4766 5.46094 11.9688 5.41406 12.5547C 5.39062 12.8828 5.44922 13.1758 5.58984 13.4336C 5.70703 13.6445 5.91797 13.8437 6.22266 14.0312C 6.55078 14.2188 7.03125 14.2891 7.66406 14.2422C 7.78125 14.2422 7.92188 14.2305 8.08594 14.207C 8.22656 14.1836 8.40234 14.1602 8.61328 14.1367C 8.82422 14.0898 9.07031 14.0312 9.35156 13.9609L 7.62891 16.2812C 7.30078 16.75 6.94922 17.0312 6.57422 17.125C 6.19922 17.2188 5.85938 17.2422 5.55469 17.1953C 5.39062 17.1719 5.0625 17.0898 4.57031 16.9492C 4.10156 16.8086 3.62109 16.5977 3.12891 16.3164C 2.66016 16.0352 2.25 15.6602 1.89844 15.1914C 1.54688 14.6992 1.40625 14.0898 1.47656 13.3633C 1.57031 12.5195 1.93359 11.7461 2.56641 11.043C 3.19922 10.3164 4.07812 9.69531 5.20312 9.17969C 6.35156 8.66406 7.71094 8.26562 9.28125 7.98438C 10.875 7.70312 12.668 7.5625 14.6602 7.5625C 16.1602 7.5625 17.3555 7.72656 18.2461 8.05469C 19.1367 8.35937 19.7812 8.76953 20.1797 9.28516C 20.6016 9.77734 20.8008 10.3633 20.7773 11.043C 20.7773 11.6992 20.6367 12.3789 20.3555 13.082C 20.2148 13.4102 20.0039 13.8672 19.7227 14.4531C 19.4648 15.0156 19.1484 15.6836 18.7734 16.457C 18.3984 17.207 18 18.0391 17.5781 18.9531C 17.1562 19.8672 16.7344 20.8164 16.3125 21.8008C 16.9453 21.8477 17.5195 21.9062 18.0352 21.9766C 18.5742 22.0469 18.9961 22.1055 19.3008 22.1523C 19.6523 22.2461 19.7695 22.3984 19.6523 22.6094C 19.4414 23.0312 19.2305 23.3477 19.0195 23.5586C 18.832 23.7695 18.6211 23.9219 18.3867 24.0156C 18.1523 24.0859 17.8945 24.1211 17.6133 24.1211C 17.332 24.0977 17.0156 24.0742 16.6641 24.0508C 16.4531 24.0508 16.2422 24.0508 16.0312 24.0508C 15.8203 24.0273 15.5977 24.0039 15.3633 23.9805C 14.918 25.0352 14.4844 26.0781 14.0625 27.1094C 13.6641 28.1406 13.2891 29.125 12.9375 30.0625C 12.6094 30.9766 12.3164 31.8203 12.0586 32.5938C 11.8008 33.3672 11.625 34.0117 11.5312 34.5273C 11.3906 35.2539 11.2852 35.9336 11.2148 36.5664C 11.168 37.1055 11.1445 37.668 11.1445 38.2539C 11.1445 38.8398 11.2383 39.3086 11.4258 39.6602C 10.9336 39.8008 10.5 39.918 10.125 40.0117C 9.77344 40.1055 9.46875 40.1758 9.21094 40.2227C 8.92969 40.293 8.69531 40.3516 8.50781 40.3984C 7.85156 40.5625 7.38281 40.5391 7.10156 40.3281C 6.84375 40.1406 6.77344 39.6719 6.89062 38.9219C 6.9375 38.4062 7.00781 37.8203 7.10156 37.1641C 7.21875 36.5312 7.38281 35.8047 7.59375 34.9844C 7.82812 34.1875 8.12109 33.2969 8.47266 32.3125C 8.84766 31.3047 9.31641 30.1914 9.87891 28.9727C 10.207 28.2695 10.582 27.4961 11.0039 26.6523C 11.4258 25.7852 11.8711 24.8594 12.3398 23.875C 11.3086 23.875 10.1953 23.9453 9 24.0859C 8.34375 24.1797 7.69922 24.2852 7.06641 24.4023C 6.52734 24.5195 5.94141 24.6602 5.30859 24.8242C 4.69922 24.9648 4.125 25.1289 3.58594 25.3164C 3.51562 25.1289 3.46875 24.9414 3.44531 24.7539C 3.44531 24.5664 3.45703 24.3906 3.48047 24.2266C 3.50391 24.0625 3.53906 23.8984 3.58594 23.7344C 3.63281 23.5703 3.70312 23.4062 3.79688 23.2422C 3.9375 22.9609 4.16016 22.6094 4.46484 22.1875C 5.56641 22.0469 6.62109 21.9414 7.62891 21.8711C 8.63672 21.8008 9.52734 21.7422 10.3008 21.6953C 11.2148 21.6484 12.0703 21.625 12.8672 21.625C 12.9844 21.6016 13.0781 21.6016 13.1484 21.625C 13.2422 21.625 13.3477 21.625 13.4648 21.625ZM 31.5 28.4102C 31.2656 29.3008 30.9492 30.1328 30.5508 30.9062C 30.1523 31.6797 29.6719 32.3477 29.1094 32.9102C 28.5703 33.4727 27.9492 33.9062 27.2461 34.2109C 26.5664 34.5391 25.8164 34.7031 24.9961 34.7031C 24.0352 34.7031 23.2734 34.4922 22.7109 34.0703C 22.1719 33.6719 21.7617 33.168 21.4805 32.5586C 21.2227 31.9492 21.0703 31.2812 21.0234 30.5547C 20.9531 29.8281 20.918 29.1484 20.918 28.5156C 20.918 28.0703 20.9766 27.5781 21.0938 27.0391C 21.1875 26.5 21.3281 25.9492 21.5156 25.3867C 21.7031 24.8242 21.9375 24.2617 22.2188 23.6992C 22.5234 23.1367 22.875 22.6211 23.2734 22.1523C 23.4141 21.7539 23.625 21.4023 23.9062 21.0977C 24.2109 20.793 24.5508 20.5469 24.9258 20.3594C 25.3242 20.1484 25.7461 19.9961 26.1914 19.9023C 26.6367 19.7852 27.0703 19.7266 27.4922 19.7266C 27.5625 19.7266 27.6211 19.7383 27.668 19.7617C 27.7383 19.7852 27.8086 19.8086 27.8789 19.832C 28.1836 19.8555 28.5586 19.9727 29.0039 20.1836C 29.4727 20.3945 29.918 20.7109 30.3398 21.1328C 30.7852 21.5547 31.1602 22.0938 31.4648 22.75C 31.7695 23.3828 31.9219 24.1562 31.9219 25.0703C 31.9219 25.2578 31.9102 25.4922 31.8867 25.7734C 31.8633 26.0312 31.8398 26.2539 31.8164 26.4414C 32.3555 26.2305 32.918 25.9727 33.5039 25.668C 34.0898 25.3633 34.6523 25.0469 35.1914 24.7188C 35.7539 24.3672 36.2695 24.0156 36.7383 23.6641C 37.207 23.3125 37.582 22.9961 37.8633 22.7148C 38.0977 22.5039 38.2969 22.3867 38.4609 22.3633C 38.625 22.3398 38.7422 22.3867 38.8125 22.5039C 38.8828 22.6211 38.8945 22.7852 38.8477 22.9961C 38.8008 23.207 38.6719 23.4414 38.4609 23.6992C 38.3438 23.8398 38.0391 24.1211 37.5469 24.543C 37.0781 24.9648 36.5156 25.4219 35.8594 25.9141C 35.2031 26.4062 34.4883 26.8867 33.7148 27.3555C 32.9414 27.8242 32.2031 28.1758 31.5 28.4102ZM 25.5586 23.0664C 25.4883 23.2773 25.4531 23.5 25.4531 23.7344C 25.4531 24.1094 25.4766 24.5078 25.5234 24.9297C 25.5703 25.3281 25.6875 25.6914 25.875 26.0195C 26.0625 26.3477 26.3555 26.6289 26.7539 26.8633C 27.1758 27.0742 27.75 27.1797 28.4766 27.1797C 28.5938 27.1797 28.7109 27.1797 28.8281 27.1797C 28.9453 27.1562 29.0625 27.1328 29.1797 27.1094C 29.25 26.8047 29.3086 26.5352 29.3555 26.3008C 29.4258 26.043 29.4609 25.8203 29.4609 25.6328C 29.5078 25.1875 29.5078 24.7305 29.4609 24.2617C 29.4141 23.793 29.3203 23.3711 29.1797 22.9961C 29.0625 22.5977 28.8984 22.2812 28.6875 22.0469C 28.5 21.7891 28.2656 21.6602 27.9844 21.6602C 27.5391 21.6602 27.1055 21.7891 26.6836 22.0469C 26.2852 22.2812 25.9102 22.6211 25.5586 23.0664ZM 23.3086 29.2539C 23.3086 29.6758 23.332 30.0977 23.3789 30.5195C 23.4258 30.918 23.5195 31.2812 23.6602 31.6094C 23.8008 31.9141 23.9883 32.1719 24.2227 32.3828C 24.457 32.5703 24.7617 32.6641 25.1367 32.6641C 25.5586 32.6641 25.9453 32.5703 26.2969 32.3828C 26.6484 32.1719 26.9648 31.9141 27.2461 31.6094C 27.5273 31.2812 27.7734 30.918 27.9844 30.5195C 28.2188 30.0977 28.418 29.6641 28.582 29.2188C 28.418 29.2422 28.2539 29.2656 28.0898 29.2891C 27.9492 29.2891 27.7852 29.2891 27.5977 29.2891C 26.707 29.2891 25.9336 29.0312 25.2773 28.5156C 24.6445 27.9766 24.1523 27.2969 23.8008 26.4766C 23.6602 26.9688 23.543 27.4492 23.4492 27.918C 23.3555 28.3867 23.3086 28.832 23.3086 29.2539ZM 34.7344 33.4375C 35.7656 29.1016 36.5859 25.6211 37.1953 22.9961C 37.8281 20.3711 38.3086 18.3672 38.6367 16.9844C 39.0117 15.3438 39.2695 14.207 39.4102 13.5742C 39.4805 13.1289 39.5391 12.6953 39.5859 12.2734C 39.6328 11.8984 39.6562 11.5117 39.6562 11.1133C 39.6562 10.7148 39.6211 10.3516 39.5508 10.0234C 39.7383 9.90625 39.9375 9.8125 40.1484 9.74219C 40.3828 9.67188 40.6055 9.61328 40.8164 9.56641C 41.0742 9.49609 41.332 9.4375 41.5898 9.39062C 41.8477 9.34375 42.082 9.32031 42.293 9.32031C 42.4805 9.32031 42.6562 9.34375 42.8203 9.39062C 42.9844 9.41406 43.0898 9.48437 43.1367 9.60156C 43.2773 9.71875 43.3359 9.95312 43.3125 10.3047C 43.3125 10.6562 43.2891 11.0195 43.2422 11.3945C 43.1484 11.8398 43.043 12.3203 42.9258 12.8359C 42.6445 13.8437 42.2578 15.2969 41.7656 17.1953C 41.3438 18.8125 40.7695 21.0156 40.043 23.8047C 39.3398 26.5938 38.4492 30.1094 37.3711 34.3516C 37.2539 34.4688 37.1133 34.5508 36.9492 34.5977C 36.7852 34.6445 36.6328 34.668 36.4922 34.668C 36.3281 34.668 36.1523 34.6562 35.9648 34.6328C 35.8008 34.5859 35.6367 34.5156 35.4727 34.4219C 35.332 34.3281 35.1914 34.1992 35.0508 34.0352C 34.9102 33.8945 34.8047 33.6953 34.7344 33.4375ZM 54.3164 27.2852C 54.1992 28.0117 54.082 28.7031 53.9648 29.3594C 53.8711 30.0156 53.8125 30.543 53.7891 30.9414C 53.7656 31.5273 53.8711 31.9492 54.1055 32.207C 54.3398 32.4648 54.5977 32.5938 54.8789 32.5938C 55.207 32.5938 55.6055 32.4297 56.0742 32.1016C 56.5664 31.7734 57.082 31.3633 57.6211 30.8711C 58.1602 30.3789 58.6992 29.8398 59.2383 29.2539C 59.7773 28.668 60.2695 28.1172 60.7148 27.6016C 61.1836 27.0625 61.5703 26.5938 61.875 26.1953C 62.2031 25.7969 62.4258 25.5391 62.543 25.4219C 62.6836 25.2812 62.8242 25.1992 62.9648 25.1758C 63.1289 25.1523 63.2578 25.1758 63.3516 25.2461C 63.4453 25.3164 63.4922 25.4453 63.4922 25.6328C 63.4922 25.8203 63.3984 26.0547 63.2109 26.3359C 62.9297 26.7812 62.5664 27.3086 62.1211 27.918C 61.6758 28.5039 61.1836 29.1133 60.6445 29.7461C 60.1055 30.3789 59.5312 31 58.9219 31.6094C 58.3359 32.2188 57.7383 32.7578 57.1289 33.2266C 56.543 33.6953 55.9688 34.0703 55.4062 34.3516C 54.8672 34.6562 54.375 34.8086 53.9297 34.8086C 53.6016 34.8086 53.2852 34.7148 52.9805 34.5273C 52.6992 34.3398 52.4414 34.0938 52.207 33.7891C 51.9727 33.4844 51.7852 33.1445 51.6445 32.7695C 51.5273 32.3945 51.4805 32.0195 51.5039 31.6445C 51.5273 31.4805 51.5625 31.1992 51.6094 30.8008C 50.625 31.9023 49.6289 32.7812 48.6211 33.4375C 47.6367 34.0703 46.6875 34.3867 45.7734 34.3867C 45.4453 34.3867 45.0938 34.3047 44.7188 34.1406C 44.3438 33.9766 44.0039 33.707 43.6992 33.332C 43.418 32.957 43.1836 32.4648 42.9961 31.8555C 42.8086 31.2461 42.7383 30.5078 42.7852 29.6406C 42.8555 28.2812 43.125 26.9922 43.5938 25.7734C 44.0625 24.5547 44.6484 23.5 45.3516 22.6094C 46.0781 21.6953 46.8867 20.9805 47.7773 20.4648C 48.6914 19.9258 49.6055 19.6562 50.5195 19.6562C 50.918 19.6562 51.2812 19.7617 51.6094 19.9727C 51.9375 20.1602 52.2188 20.418 52.4531 20.7461C 52.6875 21.0508 52.875 21.3906 53.0156 21.7656C 53.1797 22.1406 53.2969 22.4922 53.3672 22.8203C 53.5312 22.1406 53.6836 21.4727 53.8242 20.8164C 53.9648 20.1602 54.1055 19.5391 54.2461 18.9531C 54.4805 18.0859 54.7266 17.1484 54.9844 16.1406C 55.2188 15.2734 55.4883 14.2773 55.793 13.1523C 56.0977 12.0273 56.4375 10.8438 56.8125 9.60156C 57.0469 9.41406 57.2695 9.27344 57.4805 9.17969C 57.6914 9.08594 57.8906 9.01563 58.0781 8.96875C 58.2891 8.89844 58.4883 8.86328 58.6758 8.86328C 58.9102 8.86328 59.1211 8.89844 59.3086 8.96875C 59.4961 9.01563 59.6484 9.16797 59.7656 9.42578C 59.9062 9.66016 60 10.0234 60.0469 10.5156C 60.0938 11.0078 60.0938 11.6758 60.0469 12.5195C 60 13.5508 59.8125 14.6758 59.4844 15.8945C 59.1797 17.1133 58.7695 18.3789 58.2539 19.6914C 57.7383 20.9805 57.1406 22.2812 56.4609 23.5938C 55.8047 24.8828 55.0898 26.1133 54.3164 27.2852ZM 52.2422 27.7422C 52.3359 27.2969 52.418 26.8516 52.4883 26.4062C 52.582 25.9609 52.6875 25.5039 52.8047 25.0352C 52.7578 25.0586 52.7109 25.082 52.6641 25.1055C 52.6406 25.1289 52.6055 25.1523 52.5586 25.1758C 52.3008 25.293 52.125 25.293 52.0312 25.1758C 51.9375 25.0352 51.8906 24.8242 51.8906 24.543C 51.8906 24.4023 51.8789 24.1562 51.8555 23.8047C 51.832 23.4297 51.7617 23.0547 51.6445 22.6797C 51.5508 22.2812 51.3984 21.9414 51.1875 21.6602C 50.9766 21.3555 50.6836 21.2031 50.3086 21.2031C 49.7695 21.2031 49.2188 21.4844 48.6562 22.0469C 48.0938 22.5859 47.5664 23.2539 47.0742 24.0508C 46.582 24.8242 46.1719 25.6562 45.8438 26.5469C 45.5156 27.4375 45.3281 28.2344 45.2812 28.9375C 45.2344 30.0625 45.375 30.8711 45.7031 31.3633C 46.0312 31.8555 46.4766 32.1016 47.0391 32.1016C 47.4609 32.1016 47.918 31.9375 48.4102 31.6094C 48.9258 31.2812 49.418 30.8828 49.8867 30.4141C 50.3789 29.9453 50.8242 29.4648 51.2227 28.9727C 51.6445 28.4805 51.9844 28.0703 52.2422 27.7422ZM 76.4648 26.6875C 75.7617 27.7188 74.9648 28.7266 74.0742 29.7109C 73.1836 30.6719 72.2344 31.5391 71.2266 32.3125C 70.2422 33.0625 69.2227 33.6719 68.168 34.1406C 67.1367 34.6094 66.1289 34.8438 65.1445 34.8438C 64.6289 34.8438 64.0664 34.7148 63.457 34.457C 62.8711 34.2227 62.332 33.8477 61.8398 33.332C 61.3477 32.8164 60.9492 32.1484 60.6445 31.3281C 60.3633 30.5078 60.2812 29.5117 60.3984 28.3398C 60.4922 27.3789 60.7852 26.3711 61.2773 25.3164C 61.793 24.2383 62.4141 23.2539 63.1406 22.3633C 63.8906 21.4727 64.7227 20.7344 65.6367 20.1484C 66.5742 19.5625 67.5117 19.2695 68.4492 19.2695C 69.3398 19.2695 69.9844 19.4922 70.3828 19.9375C 70.7812 20.3828 70.957 20.9336 70.9102 21.5898C 70.8398 22.3164 70.6289 22.9844 70.2773 23.5938C 69.9492 24.2031 69.5508 24.7539 69.082 25.2461C 68.6133 25.7383 68.1094 26.1836 67.5703 26.582C 67.0547 26.9805 66.5625 27.3438 66.0938 27.6719C 65.5781 28.0234 65.0859 28.3633 64.6172 28.6914C 64.1484 28.9961 63.7383 29.2773 63.3867 29.5352C 63.4102 30.1211 63.5156 30.6133 63.7031 31.0117C 63.8906 31.4102 64.125 31.7383 64.4062 31.9961C 64.6875 32.2305 65.0039 32.4062 65.3555 32.5234C 65.7305 32.6172 66.1055 32.6641 66.4805 32.6641C 67.2773 32.6641 68.1094 32.418 68.9766 31.9258C 69.8438 31.4102 70.6875 30.8008 71.5078 30.0977C 72.3516 29.3711 73.125 28.6211 73.8281 27.8477C 74.5547 27.0742 75.1523 26.4062 75.6211 25.8438C 75.7852 25.6562 75.9492 25.5508 76.1133 25.5273C 76.3008 25.4805 76.4414 25.5039 76.5352 25.5977C 76.6523 25.668 76.7109 25.8086 76.7109 26.0195C 76.7109 26.207 76.6289 26.4297 76.4648 26.6875ZM 67.4648 21.2734C 67.1836 21.2734 66.8438 21.4141 66.4453 21.6953C 66.0703 21.9766 65.6953 22.3867 65.3203 22.9258C 64.9453 23.4414 64.5938 24.0859 64.2656 24.8594C 63.9375 25.6094 63.6914 26.4766 63.5273 27.4609C 63.8086 27.25 64.1133 27.0391 64.4414 26.8281C 64.7695 26.5938 65.0977 26.3477 65.4258 26.0898C 66.4336 25.3164 67.1367 24.6367 67.5352 24.0508C 67.9336 23.4648 68.1562 22.9609 68.2031 22.5391C 68.25 22.0938 68.2031 21.7773 68.0625 21.5898C 67.9219 21.3789 67.7227 21.2734 67.4648 21.2734ZM 85.1133 27.2852C 84.9961 28.0117 84.8789 28.7031 84.7617 29.3594C 84.668 30.0156 84.6094 30.543 84.5859 30.9414C 84.5625 31.5273 84.668 31.9492 84.9023 32.207C 85.1367 32.4648 85.3945 32.5938 85.6758 32.5938C 86.0039 32.5938 86.4023 32.4297 86.8711 32.1016C 87.3633 31.7734 87.8789 31.3633 88.418 30.8711C 88.957 30.3789 89.4961 29.8398 90.0352 29.2539C 90.5742 28.668 91.0664 28.1172 91.5117 27.6016C 91.9805 27.0625 92.3672 26.5938 92.6719 26.1953C 93 25.7969 93.2227 25.5391 93.3398 25.4219C 93.4805 25.2812 93.6211 25.1992 93.7617 25.1758C 93.9258 25.1523 94.0547 25.1758 94.1484 25.2461C 94.2422 25.3164 94.2891 25.4453 94.2891 25.6328C 94.2891 25.8203 94.1953 26.0547 94.0078 26.3359C 93.7266 26.7812 93.3633 27.3086 92.918 27.918C 92.4727 28.5039 91.9805 29.1133 91.4414 29.7461C 90.9023 30.3789 90.3281 31 89.7188 31.6094C 89.1328 32.2188 88.5352 32.7578 87.9258 33.2266C 87.3398 33.6953 86.7656 34.0703 86.2031 34.3516C 85.6641 34.6562 85.1719 34.8086 84.7266 34.8086C 84.3984 34.8086 84.082 34.7148 83.7773 34.5273C 83.4961 34.3398 83.2383 34.0938 83.0039 33.7891C 82.7695 33.4844 82.582 33.1445 82.4414 32.7695C 82.3242 32.3945 82.2773 32.0195 82.3008 31.6445C 82.3242 31.4805 82.3594 31.1992 82.4062 30.8008C 81.4219 31.9023 80.4258 32.7812 79.418 33.4375C 78.4336 34.0703 77.4844 34.3867 76.5703 34.3867C 76.2422 34.3867 75.8906 34.3047 75.5156 34.1406C 75.1406 33.9766 74.8008 33.707 74.4961 33.332C 74.2148 32.957 73.9805 32.4648 73.793 31.8555C 73.6055 31.2461 73.5352 30.5078 73.582 29.6406C 73.6523 28.2812 73.9219 26.9922 74.3906 25.7734C 74.8594 24.5547 75.4453 23.5 76.1484 22.6094C 76.875 21.6953 77.6836 20.9805 78.5742 20.4648C 79.4883 19.9258 80.4023 19.6562 81.3164 19.6562C 81.7148 19.6562 82.0781 19.7617 82.4062 19.9727C 82.7344 20.1602 83.0156 20.418 83.25 20.7461C 83.4844 21.0508 83.6719 21.3906 83.8125 21.7656C 83.9766 22.1406 84.0938 22.4922 84.1641 22.8203C 84.3281 22.1406 84.4805 21.4727 84.6211 20.8164C 84.7617 20.1602 84.9023 19.5391 85.043 18.9531C 85.2773 18.0859 85.5234 17.1484 85.7812 16.1406C 86.0156 15.2734 86.2852 14.2773 86.5898 13.1523C 86.8945 12.0273 87.2344 10.8438 87.6094 9.60156C 87.8438 9.41406 88.0664 9.27344 88.2773 9.17969C 88.4883 9.08594 88.6875 9.01563 88.875 8.96875C 89.0859 8.89844 89.2852 8.86328 89.4727 8.86328C 89.707 8.86328 89.918 8.89844 90.1055 8.96875C 90.293 9.01563 90.4453 9.16797 90.5625 9.42578C 90.7031 9.66016 90.7969 10.0234 90.8438 10.5156C 90.8906 11.0078 90.8906 11.6758 90.8438 12.5195C 90.7969 13.5508 90.6094 14.6758 90.2812 15.8945C 89.9766 17.1133 89.5664 18.3789 89.0508 19.6914C 88.5352 20.9805 87.9375 22.2812 87.2578 23.5938C 86.6016 24.8828 85.8867 26.1133 85.1133 27.2852ZM 83.0391 27.7422C 83.1328 27.2969 83.2148 26.8516 83.2852 26.4062C 83.3789 25.9609 83.4844 25.5039 83.6016 25.0352C 83.5547 25.0586 83.5078 25.082 83.4609 25.1055C 83.4375 25.1289 83.4023 25.1523 83.3555 25.1758C 83.0977 25.293 82.9219 25.293 82.8281 25.1758C 82.7344 25.0352 82.6875 24.8242 82.6875 24.543C 82.6875 24.4023 82.6758 24.1562 82.6523 23.8047C 82.6289 23.4297 82.5586 23.0547 82.4414 22.6797C 82.3477 22.2812 82.1953 21.9414 81.9844 21.6602C 81.7734 21.3555 81.4805 21.2031 81.1055 21.2031C 80.5664 21.2031 80.0156 21.4844 79.4531 22.0469C 78.8906 22.5859 78.3633 23.2539 77.8711 24.0508C 77.3789 24.8242 76.9688 25.6562 76.6406 26.5469C 76.3125 27.4375 76.125 28.2344 76.0781 28.9375C 76.0312 30.0625 76.1719 30.8711 76.5 31.3633C 76.8281 31.8555 77.2734 32.1016 77.8359 32.1016C 78.2578 32.1016 78.7148 31.9375 79.207 31.6094C 79.7227 31.2812 80.2148 30.8828 80.6836 30.4141C 81.1758 29.9453 81.6211 29.4648 82.0195 28.9727C 82.4414 28.4805 82.7812 28.0703 83.0391 27.7422ZM 112.605 27.2852C 112.488 28.0117 112.371 28.7031 112.254 29.3594C 112.16 30.0156 112.102 30.543 112.078 30.9414C 112.055 31.5273 112.16 31.9492 112.395 32.207C 112.629 32.4648 112.887 32.5938 113.168 32.5938C 113.496 32.5938 113.895 32.4297 114.363 32.1016C 114.855 31.7734 115.371 31.3633 115.91 30.8711C 116.449 30.3789 116.988 29.8398 117.527 29.2539C 118.066 28.668 118.559 28.1172 119.004 27.6016C 119.473 27.0625 119.859 26.5938 120.164 26.1953C 120.492 25.7969 120.715 25.5391 120.832 25.4219C 120.973 25.2812 121.113 25.1992 121.254 25.1758C 121.418 25.1523 121.547 25.1758 121.641 25.2461C 121.734 25.3164 121.781 25.4453 121.781 25.6328C 121.781 25.8203 121.688 26.0547 121.5 26.3359C 121.219 26.7812 120.855 27.3086 120.41 27.918C 119.965 28.5039 119.473 29.1133 118.934 29.7461C 118.395 30.3789 117.82 31 117.211 31.6094C 116.625 32.2188 116.027 32.7578 115.418 33.2266C 114.832 33.6953 114.258 34.0703 113.695 34.3516C 113.156 34.6562 112.664 34.8086 112.219 34.8086C 111.891 34.8086 111.574 34.7148 111.27 34.5273C 110.988 34.3398 110.73 34.0938 110.496 33.7891C 110.262 33.4844 110.074 33.1445 109.934 32.7695C 109.816 32.3945 109.77 32.0195 109.793 31.6445C 109.816 31.4805 109.852 31.1992 109.898 30.8008C 108.914 31.9023 107.918 32.7812 106.91 33.4375C 105.926 34.0703 104.977 34.3867 104.062 34.3867C 103.734 34.3867 103.383 34.3047 103.008 34.1406C 102.633 33.9766 102.293 33.707 101.988 33.332C 101.707 32.957 101.473 32.4648 101.285 31.8555C 101.098 31.2461 101.027 30.5078 101.074 29.6406C 101.145 28.2812 101.414 26.9922 101.883 25.7734C 102.352 24.5547 102.938 23.5 103.641 22.6094C 104.367 21.6953 105.176 20.9805 106.066 20.4648C 106.98 19.9258 107.895 19.6562 108.809 19.6562C 109.207 19.6562 109.57 19.7617 109.898 19.9727C 110.227 20.1602 110.508 20.418 110.742 20.7461C 110.977 21.0508 111.164 21.3906 111.305 21.7656C 111.469 22.1406 111.586 22.4922 111.656 22.8203C 111.82 22.1406 111.973 21.4727 112.113 20.8164C 112.254 20.1602 112.395 19.5391 112.535 18.9531C 112.77 18.0859 113.016 17.1484 113.273 16.1406C 113.508 15.2734 113.777 14.2773 114.082 13.1523C 114.387 12.0273 114.727 10.8438 115.102 9.60156C 115.336 9.41406 115.559 9.27344 115.77 9.17969C 115.98 9.08594 116.18 9.01563 116.367 8.96875C 116.578 8.89844 116.777 8.86328 116.965 8.86328C 117.199 8.86328 117.41 8.89844 117.598 8.96875C 117.785 9.01563 117.938 9.16797 118.055 9.42578C 118.195 9.66016 118.289 10.0234 118.336 10.5156C 118.383 11.0078 118.383 11.6758 118.336 12.5195C 118.289 13.5508 118.102 14.6758 117.773 15.8945C 117.469 17.1133 117.059 18.3789 116.543 19.6914C 116.027 20.9805 115.43 22.2812 114.75 23.5938C 114.094 24.8828 113.379 26.1133 112.605 27.2852ZM 110.531 27.7422C 110.625 27.2969 110.707 26.8516 110.777 26.4062C 110.871 25.9609 110.977 25.5039 111.094 25.0352C 111.047 25.0586 111 25.082 110.953 25.1055C 110.93 25.1289 110.895 25.1523 110.848 25.1758C 110.59 25.293 110.414 25.293 110.32 25.1758C 110.227 25.0352 110.18 24.8242 110.18 24.543C 110.18 24.4023 110.168 24.1562 110.145 23.8047C 110.121 23.4297 110.051 23.0547 109.934 22.6797C 109.84 22.2812 109.688 21.9414 109.477 21.6602C 109.266 21.3555 108.973 21.2031 108.598 21.2031C 108.059 21.2031 107.508 21.4844 106.945 22.0469C 106.383 22.5859 105.855 23.2539 105.363 24.0508C 104.871 24.8242 104.461 25.6562 104.133 26.5469C 103.805 27.4375 103.617 28.2344 103.57 28.9375C 103.523 30.0625 103.664 30.8711 103.992 31.3633C 104.32 31.8555 104.766 32.1016 105.328 32.1016C 105.75 32.1016 106.207 31.9375 106.699 31.6094C 107.215 31.2812 107.707 30.8828 108.176 30.4141C 108.668 29.9453 109.113 29.4648 109.512 28.9727C 109.934 28.4805 110.273 28.0703 110.531 27.7422ZM 134.754 26.6875C 134.051 27.7188 133.254 28.7266 132.363 29.7109C 131.473 30.6719 130.523 31.5391 129.516 32.3125C 128.531 33.0625 127.512 33.6719 126.457 34.1406C 125.426 34.6094 124.418 34.8438 123.434 34.8438C 122.918 34.8438 122.355 34.7148 121.746 34.457C 121.16 34.2227 120.621 33.8477 120.129 33.332C 119.637 32.8164 119.238 32.1484 118.934 31.3281C 118.652 30.5078 118.57 29.5117 118.688 28.3398C 118.781 27.3789 119.074 26.3711 119.566 25.3164C 120.082 24.2383 120.703 23.2539 121.43 22.3633C 122.18 21.4727 123.012 20.7344 123.926 20.1484C 124.863 19.5625 125.801 19.2695 126.738 19.2695C 127.629 19.2695 128.273 19.4922 128.672 19.9375C 129.07 20.3828 129.246 20.9336 129.199 21.5898C 129.129 22.3164 128.918 22.9844 128.566 23.5938C 128.238 24.2031 127.84 24.7539 127.371 25.2461C 126.902 25.7383 126.398 26.1836 125.859 26.582C 125.344 26.9805 124.852 27.3438 124.383 27.6719C 123.867 28.0234 123.375 28.3633 122.906 28.6914C 122.438 28.9961 122.027 29.2773 121.676 29.5352C 121.699 30.1211 121.805 30.6133 121.992 31.0117C 122.18 31.4102 122.414 31.7383 122.695 31.9961C 122.977 32.2305 123.293 32.4062 123.645 32.5234C 124.02 32.6172 124.395 32.6641 124.77 32.6641C 125.566 32.6641 126.398 32.418 127.266 31.9258C 128.133 31.4102 128.977 30.8008 129.797 30.0977C 130.641 29.3711 131.414 28.6211 132.117 27.8477C 132.844 27.0742 133.441 26.4062 133.91 25.8438C 134.074 25.6562 134.238 25.5508 134.402 25.5273C 134.59 25.4805 134.73 25.5039 134.824 25.5977C 134.941 25.668 135 25.8086 135 26.0195C 135 26.207 134.918 26.4297 134.754 26.6875ZM 125.754 21.2734C 125.473 21.2734 125.133 21.4141 124.734 21.6953C 124.359 21.9766 123.984 22.3867 123.609 22.9258C 123.234 23.4414 122.883 24.0859 122.555 24.8594C 122.227 25.6094 121.98 26.4766 121.816 27.4609C 122.098 27.25 122.402 27.0391 122.73 26.8281C 123.059 26.5938 123.387 26.3477 123.715 26.0898C 124.723 25.3164 125.426 24.6367 125.824 24.0508C 126.223 23.4648 126.445 22.9609 126.492 22.5391C 126.539 22.0938 126.492 21.7773 126.352 21.5898C 126.211 21.3789 126.012 21.2734 125.754 21.2734ZM 137.18 32.8047C 137.32 32.8984 137.496 32.9453 137.707 32.9453C 137.941 32.9453 138.164 32.8984 138.375 32.8047C 138.609 32.7109 138.82 32.582 139.008 32.418C 139.219 32.2539 139.371 32.043 139.465 31.7852C 139.559 31.5273 139.559 31.1641 139.465 30.6953C 139.371 30.2031 139.219 29.6875 139.008 29.1484C 138.82 28.5859 138.609 28.0234 138.375 27.4609C 138.141 26.8984 137.941 26.3828 137.777 25.9141C 137.637 25.5625 137.52 25.2344 137.426 24.9297C 137.332 24.6719 137.238 24.4258 137.145 24.1914C 137.074 23.9336 137.016 23.7578 136.969 23.6641C 136.852 23.8516 136.641 24.1562 136.336 24.5781C 136.055 25 135.738 25.4453 135.387 25.9141C 135.059 26.3594 134.742 26.7812 134.438 27.1797C 134.133 27.5547 133.922 27.8125 133.805 27.9531C 133.617 28.1641 133.43 28.293 133.242 28.3398C 133.078 28.3633 132.938 28.3281 132.82 28.2344C 132.703 28.1172 132.633 27.9648 132.609 27.7773C 132.609 27.5664 132.703 27.3203 132.891 27.0391C 133.031 26.8516 133.242 26.5586 133.523 26.1602C 133.805 25.7383 134.086 25.3164 134.367 24.8945C 134.648 24.4492 134.906 24.0625 135.141 23.7344C 135.375 23.3828 135.504 23.1719 135.527 23.1016C 135.574 22.9141 135.504 22.668 135.316 22.3633C 135.152 22.0586 135.129 21.707 135.246 21.3086C 135.34 20.9805 135.551 20.6055 135.879 20.1836C 136.207 19.7383 136.594 19.3398 137.039 18.9883C 137.484 18.6367 137.941 18.3789 138.41 18.2148C 138.879 18.0273 139.301 18.0273 139.676 18.2148C 139.98 18.4023 140.227 18.6133 140.414 18.8477C 140.602 19.0586 140.672 19.2812 140.625 19.5156C 140.578 19.6328 140.508 19.7852 140.414 19.9727C 140.32 20.1602 140.18 20.3945 139.992 20.6758C 139.805 20.9336 139.535 21.2734 139.184 21.6953C 139.254 22.2344 139.348 22.7266 139.465 23.1719C 139.605 23.6172 139.734 24.0039 139.852 24.332C 139.992 24.7305 140.145 25.0938 140.309 25.4219C 140.52 25.8438 140.742 26.2773 140.977 26.7227C 141.211 27.168 141.422 27.6133 141.609 28.0586C 141.797 28.4805 141.949 28.8789 142.066 29.2539C 142.184 29.6289 142.219 29.9453 142.172 30.2031C 142.102 30.6016 141.891 31.082 141.539 31.6445C 141.211 32.207 140.789 32.7578 140.273 33.2969C 139.781 33.8125 139.207 34.2578 138.551 34.6328C 137.918 35.0078 137.25 35.1953 136.547 35.1953C 136.055 35.1953 135.574 35.043 135.105 34.7383C 134.66 34.4336 134.273 34.082 133.945 33.6836C 133.641 33.2617 133.406 32.8516 133.242 32.4531C 133.102 32.0547 133.09 31.75 133.207 31.5391C 133.348 31.2578 133.477 31.0352 133.594 30.8711C 133.711 30.707 133.887 30.5195 134.121 30.3086C 134.215 30.2383 134.332 30.1562 134.473 30.0625C 134.59 29.9922 134.754 29.9219 134.965 29.8516C 135.176 29.7812 135.422 29.6992 135.703 29.6055C 135.938 30.332 136.148 30.9062 136.336 31.3281C 136.523 31.7266 136.676 32.043 136.793 32.2773C 136.934 32.5352 137.062 32.7109 137.18 32.8047ZM 152.613 13.293C 152.543 13.5508 152.402 13.8086 152.191 14.0664C 152.004 14.3008 151.781 14.5 151.523 14.6641C 151.289 14.8047 151.043 14.8984 150.785 14.9453C 150.527 14.9922 150.316 14.9453 150.152 14.8047C 149.66 14.4297 149.402 14.0312 149.379 13.6094C 149.355 13.1641 149.461 12.7539 149.695 12.3789C 149.93 11.9805 150.223 11.6523 150.574 11.3945C 150.926 11.1133 151.23 10.9492 151.488 10.9023C 151.746 10.8555 151.957 10.9141 152.121 11.0781C 152.309 11.2188 152.449 11.418 152.543 11.6758C 152.637 11.9102 152.684 12.1797 152.684 12.4844C 152.707 12.7891 152.684 13.0586 152.613 13.293ZM 147.762 20.7812C 147.879 20.6406 148.102 20.5234 148.43 20.4297C 148.758 20.3359 149.098 20.2656 149.449 20.2188C 149.801 20.1484 150.117 20.1133 150.398 20.1133C 150.703 20.0898 150.879 20.0898 150.926 20.1133C 150.949 20.1367 150.891 20.3828 150.75 20.8516C 150.609 21.3203 150.434 21.8711 150.223 22.5039C 150.012 23.1367 149.789 23.793 149.555 24.4727C 149.32 25.1289 149.145 25.668 149.027 26.0898C 148.91 26.5117 148.77 26.9922 148.605 27.5312C 148.441 28.0469 148.289 28.5625 148.148 29.0781C 148.031 29.5703 147.949 30.0391 147.902 30.4844C 147.855 30.9297 147.891 31.2695 148.008 31.5039C 148.125 31.7852 148.254 31.9844 148.395 32.1016C 148.535 32.1953 148.688 32.2422 148.852 32.2422C 149.32 32.2422 149.906 31.9844 150.609 31.4688C 151.336 30.9531 152.062 30.3438 152.789 29.6406C 153.539 28.9141 154.23 28.1875 154.863 27.4609C 155.496 26.7109 155.965 26.1133 156.27 25.668C 156.457 25.4336 156.645 25.2812 156.832 25.2109C 157.043 25.1406 157.207 25.1523 157.324 25.2461C 157.465 25.3398 157.535 25.4922 157.535 25.7031C 157.559 25.9141 157.488 26.1602 157.324 26.4414C 156.949 27.0977 156.398 27.8828 155.672 28.7969C 154.945 29.6875 154.172 30.5547 153.352 31.3984C 152.531 32.2188 151.723 32.9219 150.926 33.5078C 150.152 34.0938 149.52 34.3984 149.027 34.4219C 148.629 34.4453 148.23 34.375 147.832 34.2109C 147.457 34.0703 147.105 33.8711 146.777 33.6133C 146.473 33.332 146.215 33.0156 146.004 32.6641C 145.793 32.2891 145.676 31.9023 145.652 31.5039C 145.582 30.918 145.582 30.1211 145.652 29.1133C 145.723 28.082 145.852 27.0391 146.039 25.9844C 146.227 24.9062 146.461 23.8867 146.742 22.9258C 147.047 21.9648 147.387 21.25 147.762 20.7812ZM 164.039 39.0273C 163.922 39.5898 163.77 40.293 163.582 41.1367C 163.418 41.9805 163.219 42.8711 162.984 43.8086C 162.773 44.7461 162.516 45.6719 162.211 46.5859C 161.93 47.5234 161.613 48.3555 161.262 49.082C 160.91 49.832 160.523 50.4414 160.102 50.9102C 159.68 51.3789 159.211 51.6133 158.695 51.6133C 157.922 51.6133 157.254 51.3789 156.691 50.9102C 156.152 50.4648 155.695 49.8906 155.32 49.1875C 154.945 48.5078 154.676 47.7695 154.512 46.9727C 154.324 46.1758 154.23 45.4375 154.23 44.7578C 154.23 43.8203 154.312 43.0352 154.477 42.4023C 154.641 41.793 154.922 41.207 155.32 40.6445C 155.742 40.082 156.305 39.4844 157.008 38.8516C 157.711 38.2188 158.613 37.4336 159.715 36.4961C 160.254 36.0273 160.77 35.582 161.262 35.1602C 161.754 34.7383 162.223 34.3516 162.668 34C 162.785 33.5312 162.891 33.0977 162.984 32.6992C 163.102 32.2773 163.195 31.9023 163.266 31.5742C 162.656 32.3945 161.918 33.0859 161.051 33.6484C 160.207 34.2109 159.234 34.4922 158.133 34.4922C 157.125 34.4922 156.305 34.0469 155.672 33.1562C 155.062 32.2422 154.758 30.9062 154.758 29.1484C 154.758 28.2812 154.922 27.2852 155.25 26.1602C 155.578 25.0352 156.047 23.9805 156.656 22.9961C 157.266 22.0117 158.016 21.1797 158.906 20.5C 159.797 19.8203 160.793 19.4805 161.895 19.4805C 162.41 19.4805 162.855 19.6094 163.23 19.8672C 163.605 20.125 163.922 20.4531 164.18 20.8516C 164.438 21.2266 164.637 21.6367 164.777 22.082C 164.918 22.5039 165.023 22.9023 165.094 23.2773C 165.141 23.1367 165.176 22.9961 165.199 22.8555C 165.223 22.6914 165.258 22.5508 165.305 22.4336C 165.539 21.6367 165.797 21.0977 166.078 20.8164C 166.383 20.5117 166.828 20.3594 167.414 20.3594C 167.742 20.3594 168.012 20.418 168.223 20.5352C 168.457 20.6523 168.574 20.7578 168.574 20.8516C 168.457 21.1094 168.363 21.3086 168.293 21.4492C 168.223 21.5898 168.152 21.7422 168.082 21.9062C 168.012 22.0469 167.941 22.2344 167.871 22.4688C 167.801 22.7031 167.707 23.043 167.59 23.4883C 167.543 23.6523 167.449 24.0391 167.309 24.6484C 167.191 25.2344 167.027 25.9375 166.816 26.7578C 166.629 27.5781 166.418 28.4805 166.184 29.4648C 165.973 30.4492 165.762 31.4102 165.551 32.3477C 166.207 31.9727 166.887 31.5156 167.59 30.9766C 168.293 30.4375 168.961 29.8867 169.594 29.3242C 170.227 28.7617 170.789 28.2344 171.281 27.7422C 171.773 27.2266 172.137 26.8047 172.371 26.4766C 172.559 26.1953 172.77 25.9961 173.004 25.8789C 173.238 25.7617 173.438 25.7266 173.602 25.7734C 173.789 25.7969 173.895 25.9023 173.918 26.0898C 173.965 26.2539 173.895 26.4883 173.707 26.793C 173.168 27.6602 172.512 28.5039 171.738 29.3242C 170.965 30.1211 170.168 30.8711 169.348 31.5742C 168.551 32.2539 167.766 32.8633 166.992 33.4023C 166.242 33.918 165.598 34.3398 165.059 34.668C 164.824 35.7227 164.625 36.5781 164.461 37.2344C 164.297 37.8906 164.156 38.4883 164.039 39.0273ZM 159.609 32.1016C 160.102 32.1016 160.559 31.9727 160.98 31.7148C 161.426 31.457 161.824 31.1641 162.176 30.8359C 162.527 30.4844 162.82 30.1328 163.055 29.7812C 163.289 29.4297 163.465 29.1484 163.582 28.9375C 163.676 28.7266 163.781 28.4453 163.898 28.0938C 164.039 27.7422 164.145 27.4023 164.215 27.0742C 164.285 26.7461 164.309 26.4531 164.285 26.1953C 164.285 25.9375 164.203 25.7969 164.039 25.7734C 163.898 25.75 163.781 25.6562 163.688 25.4922C 163.617 25.3281 163.559 25.1406 163.512 24.9297C 163.465 24.7188 163.43 24.5078 163.406 24.2969C 163.406 24.0859 163.395 23.8984 163.371 23.7344C 163.254 22.9141 163.055 22.3164 162.773 21.9414C 162.492 21.5664 162.176 21.3789 161.824 21.3789C 161.238 21.3789 160.676 21.6133 160.137 22.082C 159.621 22.5508 159.152 23.1602 158.73 23.9102C 158.332 24.6367 158.016 25.4453 157.781 26.3359C 157.547 27.2031 157.43 28.0352 157.43 28.832C 157.43 29.8164 157.57 30.6133 157.852 31.2227C 158.133 31.8086 158.719 32.1016 159.609 32.1016ZM 157.992 48.4141C 158.461 48.4141 158.836 48.0625 159.117 47.3594C 159.422 46.6797 159.738 45.7422 160.066 44.5469C 160.137 44.2656 160.23 43.8555 160.348 43.3164C 160.488 42.8008 160.641 42.2031 160.805 41.5234C 160.992 40.8438 161.18 40.1055 161.367 39.3086C 161.555 38.5352 161.754 37.75 161.965 36.9531C 161.777 37.1172 161.578 37.2812 161.367 37.4453C 161.18 37.6328 160.98 37.8438 160.77 38.0781C 160.254 38.5703 159.75 39.0391 159.258 39.4844C 158.789 39.9531 158.367 40.4336 157.992 40.9258C 157.617 41.4414 157.312 41.9922 157.078 42.5781C 156.867 43.1641 156.762 43.8438 156.762 44.6172C 156.762 45.3906 156.785 46.0234 156.832 46.5156C 156.902 47.0078 156.984 47.3945 157.078 47.6758C 157.195 47.957 157.324 48.1445 157.465 48.2383C 157.629 48.3555 157.805 48.4141 157.992 48.4141ZM 181.758 34.8789C 181.219 34.8789 180.75 34.7734 180.352 34.5625C 179.977 34.375 179.672 34.1172 179.438 33.7891C 179.203 33.4609 179.051 33.0859 178.98 32.6641C 178.91 32.2188 178.934 31.75 179.051 31.2578C 179.121 30.9297 179.238 30.4961 179.402 29.957C 179.566 29.3945 179.73 28.7969 179.895 28.1641C 180.082 27.5078 180.246 26.8633 180.387 26.2305C 180.551 25.5742 180.656 24.9883 180.703 24.4727C 180.75 23.9336 180.727 23.5 180.633 23.1719C 180.539 22.8203 180.34 22.6445 180.035 22.6445C 179.66 22.6445 179.273 22.7734 178.875 23.0312C 178.477 23.2656 178.066 23.5938 177.645 24.0156C 177.246 24.4375 176.836 24.9297 176.414 25.4922C 176.016 26.0312 175.617 26.5938 175.219 27.1797C 175.008 27.9766 174.832 28.6797 174.691 29.2891C 174.551 29.875 174.422 30.4141 174.305 30.9062C 174.211 31.375 174.117 31.7969 174.023 32.1719C 173.93 32.5234 173.848 32.8633 173.777 33.1914C 173.707 33.4258 173.496 33.6602 173.145 33.8945C 172.793 34.1055 172.418 34.2812 172.02 34.4219C 171.621 34.5625 171.281 34.6328 171 34.6328C 170.695 34.6328 170.566 34.5273 170.613 34.3164C 170.637 34.1758 170.719 33.8594 170.859 33.3672C 170.977 32.875 171.129 32.3008 171.316 31.6445C 171.48 30.9648 171.656 30.25 171.844 29.5C 172.031 28.75 172.207 28.0352 172.371 27.3555C 172.488 26.8164 172.617 26.2188 172.758 25.5625C 172.875 25 173.016 24.3438 173.18 23.5938C 173.367 22.8438 173.578 22.0234 173.812 21.1328C 173.977 20.9922 174.141 20.8867 174.305 20.8164C 174.492 20.7227 174.68 20.6523 174.867 20.6055C 175.055 20.5352 175.254 20.4883 175.465 20.4648C 175.652 20.4648 175.84 20.4766 176.027 20.5C 176.191 20.5234 176.355 20.5703 176.52 20.6406C 176.707 20.6875 176.871 20.7695 177.012 20.8867C 176.941 21.0508 176.859 21.2852 176.766 21.5898C 176.672 21.8711 176.578 22.1758 176.484 22.5039C 176.391 22.8789 176.273 23.2656 176.133 23.6641C 176.438 23.2422 176.777 22.8203 177.152 22.3984C 177.551 21.9531 177.973 21.5547 178.418 21.2031C 178.887 20.8516 179.379 20.5703 179.895 20.3594C 180.41 20.125 180.938 20.0078 181.477 20.0078C 181.922 20.0078 182.32 20.1367 182.672 20.3945C 183.023 20.6523 183.293 21.0156 183.48 21.4844C 183.691 21.9297 183.809 22.4688 183.832 23.1016C 183.879 23.7344 183.797 24.4258 183.586 25.1758L 183.199 26.7227C 183.082 27.2148 182.93 27.8008 182.742 28.4805C 182.578 29.1367 182.367 29.8633 182.109 30.6602C 181.969 31.1758 181.91 31.6211 181.934 31.9961C 181.98 32.3711 182.215 32.5586 182.637 32.5586C 183.059 32.5586 183.586 32.3008 184.219 31.7852C 184.875 31.2695 185.531 30.6484 186.188 29.9219C 186.844 29.1953 187.465 28.457 188.051 27.707C 188.637 26.9336 189.082 26.3125 189.387 25.8438C 189.598 25.5391 189.797 25.3398 189.984 25.2461C 190.172 25.1523 190.312 25.1406 190.406 25.2109C 190.523 25.2812 190.582 25.4453 190.582 25.7031C 190.582 25.9375 190.488 26.2422 190.301 26.6172C 190.137 26.9453 189.879 27.3789 189.527 27.918C 189.199 28.457 188.801 29.0312 188.332 29.6406C 187.863 30.25 187.359 30.8711 186.82 31.5039C 186.281 32.1133 185.719 32.6758 185.133 33.1914C 184.547 33.6836 183.961 34.082 183.375 34.3867C 182.812 34.7148 182.273 34.8789 181.758 34.8789Z" transform="translate(-1 -7)"/>
</svg>
