<svg xmlns="http://www.w3.org/2000/svg" width="512" height="264.599" class="c-about__origami-image" clip-path="url(#clip)" viewBox="0 0 256 132.3">
    <path fill="#ABA28C" d="M0 0h256v132.3H0z"/>
    <path fill="#9E7F0A" fill-opacity=".76" d="M81 24l-193 26L63 74z"/>
    <path fill="#FCDBDA" fill-opacity=".48" d="M186-69l-1 185 181-2z"/>
    <path fill="#AF8B03" fill-opacity=".66" d="M147 93l-58 10 69 61z"/>
    <path fill="#FCBFAC" fill-opacity=".45" d="M0-121l122 234 164-27z"/>
    <path fill="#DA5F43" fill-opacity=".55" d="M134 65l71 23-36-66z"/>
    <path fill="#2F0415" fill-opacity=".56" d="M69 64l-70 6 65-19z"/>
    <path fill="#AC8200" fill-opacity=".65" d="M196 142l-86-9 76-26z"/>
    <path fill="#30051C" fill-opacity=".44" d="M5 55l-23 8 73 7z"/>
    <path fill="#110027" fill-opacity=".22" d="M37 63l86 129L-82 92z"/>
    <path fill="#F4FF6B" fill-opacity=".46" d="M120 127l37-61-40 32z"/>
    <path fill="#BEA500" fill-opacity=".57" d="M232 128l-24-23-13 31z"/>
    <path fill="#C5A830" fill-opacity=".63" d="M217 90l-12-20 31 78z"/>
    <path fill="#D03D0A" fill-opacity=".56" d="M159 54l-12-19 10-11z"/>
    <path fill="#FFF957" fill-opacity=".36" d="M85 35L45 61 28-43z"/>
    <path fill="#FFFFA6" fill-opacity=".57" d="M174 106l-30-24 11 55z"/>
    <path fill="#954500" fill-opacity=".58" d="M160 138l17-9 4-38z"/>
    <path fill="#CF6F30" fill-opacity=".56" d="M162 58l22-32 8 14z"/>
    <path fill="#ED5851" fill-opacity=".31" d="M183 22l25 60 19-4z"/>
    <path fill="#945E02" fill-opacity=".7" d="M164 189L144 89l-11 27z"/>
    <path fill="#FFFFB4" fill-opacity=".35" d="M52-7l-71-24 48 81z"/>
    <path fill="#F2FFF5" fill-opacity=".42" d="M218 91l15 45 3-100z"/>
    <path fill="#F5EFDF" fill-opacity=".6" d="M113 78l18-18-10 41z"/>
    <path fill="#724B3B" fill-opacity=".5" d="M61 48l6 21 18-28z"/>
    <path fill="#A48F1E" fill-opacity=".62" d="M106 129l13-35-24-18z"/>
    <path fill="#C5B7BB" fill-opacity=".35" d="M120 36l-59 83-25-47z"/>
    <path fill="#EE9386" fill-opacity=".5" d="M94 54l108 46-3-33z"/>
    <path fill="#BCC4CB" fill-opacity=".64" d="M88 46L29-66 227 3z"/>
    <path fill="#C7B000" fill-opacity=".4" d="M73 47L-30 63l42-39z"/>
    <path fill="#803503" fill-opacity=".49" d="M172 47l-4 12-4-34z"/>
    <path fill="#F2EDB6" fill-opacity=".52" d="M115 72l-10-39-9 67z"/>
    <path fill="#C2BEBF" fill-opacity=".85" d="M268 87l-11 101-57-33z"/>
    <path fill="#FED4A9" fill-opacity=".43" d="M94 38l73-29-31 31z"/>
    <path fill="#8F827C" fill-opacity=".61" d="M85 36L74 17l4 27z"/>
    <path fill="#330C00" fill-opacity=".4" d="M74 45l9 6-49 15z"/>
    <path fill="#CEC7CA" fill-opacity=".48" d="M33 26l7-76 21 67z"/>
    <path fill="#F3EDCA" fill-opacity=".5" d="M165 43l-19 65 8-57z"/>
    <path fill="#F9FFD3" fill-opacity=".47" d="M201 125l13-39-31 18z"/>
    <path fill="#908489" fill-opacity=".63" d="M143 151L-2 174l92-76z"/>
    <path fill="#D6C60E" fill-opacity=".54" d="M237 109l-6 4 6-16z"/>
    <path fill="#E7E97C" fill-opacity=".48" d="M178 40l2 53-8-27z"/>
    <path fill="#E1E346" fill-opacity=".56" d="M154 170l14-74-13 10z"/>
    <path fill="#E6D24B" fill-opacity=".43" d="M130 23L99 41l34-26z"/>
    <path fill="#DBAF0A" fill-opacity=".49" d="M96 62l38-35v6z"/>
    <path fill="#FFFF69" fill-opacity=".5" d="M192 104l-6 13 24 48z"/>
    <path fill="#7F5D00" fill-opacity=".31" d="M101 117l24 19-15-60z"/>
    <path fill="#B4BAC0" fill-opacity=".74" d="M213 1l70-88-27 196z"/>
    <path fill="#5C5756" fill-opacity=".5" d="M64 152l-79-73 26 92z"/>
    <path fill="#ADA35B" fill-opacity=".53" d="M224 108l-18-7 18 25z"/>
    <path fill="#C9BC53" fill-opacity=".55" d="M246 94l-3-5-21 47z"/>
    <path fill="#EF7F87" fill-opacity=".51" d="M143 28l-37 42 34-23z"/>
    <path fill="#EDE5E7" fill-opacity=".66" d="M159 97l-10 17-3-32z"/>
    <path fill="#3D1000" fill-opacity=".49" d="M22 57l44 6-50 2z"/>
    <path fill="#D1D8E6" fill-opacity=".41" d="M17 28L14-8l13 42z"/>
    <path fill="#DDD60E" fill-opacity=".27" d="M178 55l-1 66 16 6z"/>
    <path fill="#CFC129" fill-opacity=".58" d="M66 5L45 45l35-4z"/>
    <path fill="#EEE2DE" fill-opacity=".48" d="M120 97l-6-24 26 19z"/>
    <path fill="#EF3181" fill-opacity=".31" d="M154 45l-13 43-16-11z"/>
    <path fill="#FEFF8E" fill-opacity=".33" d="M-26 88L8 36 5-31z"/>
    <path fill="#F1F6E0" fill-opacity=".48" d="M171 98l-15 42 22-46z"/>
    <path fill="#D82F44" fill-opacity=".38" d="M170 30l-15 54 3 13z"/>
    <path fill="#E8EDE2" fill-opacity=".64" d="M241 64l-56-47 39 23z"/>
    <path fill="#F08098" fill-opacity=".5" d="M154 24l-20 8 15 8z"/>
    <path fill="#C8AA1E" fill-opacity=".68" d="M24 62l14-41 5 9z"/>
    <path fill="#93837F" fill-opacity=".66" d="M9 86l-26-24 31 2z"/>
    <path fill="#C2CE01" fill-opacity=".46" d="M142 108l-15-8-6 15z"/>
    <path fill="#E5E4E9" fill-opacity=".58" d="M102 57l11 19-13 5z"/>
    <path fill="#9A8C83" fill-opacity=".51" d="M86 188L64 65l-39 9z"/>
    <path fill="#F3DA45" fill-opacity=".57" d="M164 107l4-38-6 24z"/>
    <path fill="#BBB4B2" fill-opacity=".63" d="M79 101l6-138 13 157z"/>
    <path fill="#9D5B2A" fill-opacity=".49" d="M173 11l-4 24-8 9z"/>
    <path fill="#F4F02F" fill-opacity=".43" d="M147 73l8-11-11 27z"/>
    <path fill="#C19400" fill-opacity=".53" d="M5 21l-1-5 6-8z"/>
    <path fill="#BFBEC0" fill-opacity=".92" d="M130 9l104 24-95-143z"/>
    <path fill="#D1C534" fill-opacity=".55" d="M94 107l5-21h9z"/>
    <path fill="#7A3B00" fill-opacity=".52" d="M167 119l21 17h-26z"/>
    <path fill="#C02407" fill-opacity=".39" d="M154 56l6-20-8-15z"/>
    <path fill="#B29F03" fill-opacity=".4" d="M112 77l4-3v33z"/>
    <path fill="#D6D8E9" fill-opacity=".58" d="M40 8l9 21-7-3z"/>
    <path fill="#BEC6D2" fill-opacity=".53" d="M172 28l18-16-15 26z"/>
    <path fill="#C7B659" fill-opacity=".46" d="M53 17v19L36-2z"/>
    <path fill="#240500" fill-opacity=".55" d="M39 62l-4 10-9-13z"/>
    <path fill="#F5E7F6" fill-opacity=".46" d="M141 20l-21 19 8-18z"/>
    <path fill="#DC4A58" fill-opacity=".45" d="M185 43l-8 21 21 24z"/>
    <path fill="#DB7790" fill-opacity=".43" d="M190 84l14-6-8 24z"/>
    <path fill="#DBD130" fill-opacity=".53" d="M77 23l-16-2 11 26z"/>
    <path fill="#EADACF" fill-opacity=".59" d="M103 41l37-25-39 40z"/>
    <path fill="#B4960B" fill-opacity=".62" d="M188 162l35-33-21-10z"/>
    <path fill="#DFDF38" fill-opacity=".48" d="M165 118l-15 5 9-21z"/>
    <path fill="#CCC7CA" fill-opacity=".37" d="M157-5l11 28-8 32z"/>
    <path fill="#EFE642" fill-opacity=".53" d="M113 79l12-13-1-4z"/>
    <path fill="#CFD0D1" fill-opacity=".58" d="M46 21l-14 1 7-19z"/>
    <path fill="#D5DDEF" fill-opacity=".55" d="M-73-9l66-2L8 31z"/>
    <path fill="#FFE5C0" fill-opacity=".44" d="M135 48l18-12-30 42z"/>
    <path fill="#DCC46D" fill-opacity=".49" d="M216 48l15 6-34-25z"/>
    <path fill="#E5ECF4" fill-opacity=".67" d="M-28-88l54 25 1 78z"/>
    <path fill="#E4EE3A" fill-opacity=".53" d="M207 80l4 2-13-26z"/>
    <path fill="#BAAA6E" fill-opacity=".52" d="M23 8L13-14 6 11z"/>
    <path fill="#EDF6F8" fill-opacity=".52" d="M237 74l-19 22 13 16z"/>
    <path fill="#EFD44C" fill-opacity=".61" d="M141 38l5 2-14 14z"/>
    <path fill="#CAAF31" fill-opacity=".45" d="M110 39l6-11-15 12z"/>
</svg>
