<?xml version="1.0" encoding="utf-8"?>
<!-- Generator: Adobe Illustrator 19.0.0, SVG Export Plug-In . SVG Version: 6.00 Build 0)  -->
<svg version="1.1" id="Layer_1" xmlns="http://www.w3.org/2000/svg" xmlns:xlink="http://www.w3.org/1999/xlink" x="0px" y="0px"
	 viewBox="214 36.9 1024 768" style="enable-background:new 214 36.9 1024 768;" xml:space="preserve">
<style type="text/css">
	.st0{clip-path:url(#SVGID_2_);}
	.st1{fill:#B4A386;}
	.st2{fill:#6A5C34;fill-opacity:0.502;}
	.st3{fill:#DEC8C9;fill-opacity:0.502;}
	.st4{fill:#E7B074;fill-opacity:0.502;}
	.st5{fill:#BCA500;fill-opacity:0.502;}
	.st6{fill:#A88500;fill-opacity:0.502;}
	.st7{fill:#380800;fill-opacity:0.502;}
	.st8{fill:#CD5035;fill-opacity:0.502;}
	.st9{fill:#AFB6BB;fill-opacity:0.502;}
	.st10{fill:#484B61;fill-opacity:0.502;}
	.st11{fill:#FFF8B8;fill-opacity:0.502;}
	.st12{fill:#F7F2AE;fill-opacity:0.502;}
	.st13{fill:#B7C4C1;fill-opacity:0.502;}
	.st14{fill:#FEE3D5;fill-opacity:0.502;}
	.st15{fill:#BEA801;fill-opacity:0.502;}
	.st16{fill:#847B82;fill-opacity:0.502;}
	.st17{fill:#F6FFE7;fill-opacity:0.502;}
	.st18{fill:#885101;fill-opacity:0.502;}
	.st19{fill:#A9B4C2;fill-opacity:0.502;}
	.st20{fill:#864E00;fill-opacity:0.502;}
	.st21{fill:#D3C712;fill-opacity:0.502;}
	.st22{fill:#A3941B;fill-opacity:0.502;}
	.st23{fill:#EF7A7E;fill-opacity:0.502;}
	.st24{fill:#DAD78A;fill-opacity:0.502;}
	.st25{fill:#EB908E;fill-opacity:0.502;}
	.st26{fill:#B5B8C1;fill-opacity:0.502;}
	.st27{fill:#2F0B09;fill-opacity:0.502;}
	.st28{fill:#BC1900;fill-opacity:0.502;}
	.st29{fill:#BDC11B;fill-opacity:0.502;}
	.st30{fill:#B5A424;fill-opacity:0.502;}
	.st31{fill:#E3C5B0;fill-opacity:0.502;}
	.st32{fill:#C3623D;fill-opacity:0.502;}
	.st33{fill:#E2855E;fill-opacity:0.502;}
	.st34{fill:#F0E8E9;fill-opacity:0.502;}
	.st35{fill:#DBEBFF;fill-opacity:0.502;}
	.st36{fill:#8F7908;fill-opacity:0.502;}
	.st37{fill:#DEE73A;fill-opacity:0.502;}
	.st38{fill:#B99E18;fill-opacity:0.502;}
	.st39{fill:#4A453E;fill-opacity:0.502;}
	.st40{fill:#8C6D6C;fill-opacity:0.502;}
	.st41{fill:#E7E8CC;fill-opacity:0.502;}
	.st42{fill:#AEAEB9;fill-opacity:0.502;}
	.st43{fill:#E7DF4F;fill-opacity:0.502;}
	.st44{fill:#E15B78;fill-opacity:0.502;}
	.st45{fill:#E0EECB;fill-opacity:0.502;}
	.st46{fill:#EEFFFE;fill-opacity:0.502;}
	.st47{fill:#F7FFFF;fill-opacity:0.502;}
	.st48{fill:#ED648E;fill-opacity:0.502;}
	.st49{fill:#816648;fill-opacity:0.502;}
	.st50{fill:#F0DDDD;fill-opacity:0.502;}
	.st51{fill:#D4B326;fill-opacity:0.502;}
	.st52{fill:#BBC3CB;fill-opacity:0.502;}
	.st53{fill:#63270A;fill-opacity:0.502;}
	.st54{fill:#BCC0CC;fill-opacity:0.502;}
	.st55{fill:#D7CD27;fill-opacity:0.502;}
	.st56{fill:#210000;fill-opacity:0.502;}
	.st57{fill:#998E85;fill-opacity:0.502;}
	.st58{fill:#7F3209;fill-opacity:0.502;}
	.st59{fill:#D5BD3D;fill-opacity:0.502;}
	.st60{fill:#9A7805;fill-opacity:0.502;}
	.st61{fill:#C3AA1C;fill-opacity:0.502;}
	.st62{fill:#A74926;fill-opacity:0.502;}
	.st63{fill:#F5FFFF;fill-opacity:0.502;}
	.st64{fill:#B8B2AD;fill-opacity:0.502;}
	.st65{fill:#F1D2A3;fill-opacity:0.502;}
	.st66{fill:#E0EBFF;fill-opacity:0.502;}
	.st67{fill:#B89600;fill-opacity:0.502;}
	.st68{fill:#B09010;fill-opacity:0.502;}
	.st69{fill:#E7EEDA;fill-opacity:0.502;}
	.st70{fill:#EFFF86;fill-opacity:0.502;}
	.st71{fill:#DADEFA;fill-opacity:0.502;}
	.st72{fill:#E5E73A;fill-opacity:0.502;}
	.st73{fill:#AEACB2;fill-opacity:0.502;}
	.st74{fill:#F5EDDF;fill-opacity:0.502;}
	.st75{fill:#EDEEED;fill-opacity:0.502;}
	.st76{fill:#BFBDC7;fill-opacity:0.502;}
	.st77{fill:#B8C1C3;fill-opacity:0.502;}
	.st78{fill:#AB9155;fill-opacity:0.502;}
	.st79{fill:#F9FF4E;fill-opacity:0.502;}
	.st80{fill:#E0DD48;fill-opacity:0.502;}
	.st81{fill:#BCAD55;fill-opacity:0.502;}
	.st82{fill:#ECCEBD;fill-opacity:0.502;}
	.st83{fill:#DC6435;fill-opacity:0.502;}
	.st84{fill:#EDF79A;fill-opacity:0.502;}
	.st85{fill:#DAE429;fill-opacity:0.502;}
	.st86{fill:#DFB213;fill-opacity:0.502;}
	.st87{fill:#C3B01F;fill-opacity:0.502;}
	.st88{fill:#E67F79;fill-opacity:0.502;}
	.st89{fill:#E08DAA;fill-opacity:0.502;}
	.st90{fill:#DBD440;fill-opacity:0.502;}
	.st91{fill:#F2DBBA;fill-opacity:0.502;}
	.st92{fill:#EDABA8;fill-opacity:0.502;}
	.st93{fill:#B39F8E;fill-opacity:0.502;}
	.st94{fill:#D82E2E;fill-opacity:0.502;}
	.st95{fill:#CCC965;fill-opacity:0.502;}
	.st96{fill:#E0D8D6;fill-opacity:0.502;}
	.st97{fill:#623817;fill-opacity:0.502;}
	.st98{fill:#76706C;fill-opacity:0.502;}
	.st99{fill:#BEBDC3;fill-opacity:0.502;}
	.st100{fill:#E1EA68;fill-opacity:0.502;}
	.st101{fill:#CEB033;fill-opacity:0.502;}
	.st102{fill:#492B14;fill-opacity:0.502;}
	.st103{fill:#A49C94;fill-opacity:0.502;}
	.st104{fill:#8B3E0D;fill-opacity:0.502;}
	.st105{fill:#BEC030;fill-opacity:0.502;}
	.st106{fill:#8C847C;fill-opacity:0.502;}
	.st107{fill:#C9BD33;fill-opacity:0.502;}
	.st108{fill:#9C8B89;fill-opacity:0.502;}
	.st109{fill:#E1EDFF;fill-opacity:0.502;}
	.st110{fill:#ADA224;fill-opacity:0.502;}
	.st111{fill:#D4D4D6;fill-opacity:0.502;}
	.st112{fill:#9E7200;fill-opacity:0.502;}
	.st113{fill:#DBE792;fill-opacity:0.502;}
	.st114{fill:#D5C965;fill-opacity:0.502;}
	.st115{fill:#D4CA48;fill-opacity:0.502;}
	.st116{fill:#B9AA44;fill-opacity:0.502;}
	.st117{fill:#A27B0E;fill-opacity:0.502;}
	.st118{fill:#EAF2E2;fill-opacity:0.502;}
	.st119{fill:#DEE5EF;fill-opacity:0.502;}
	.st120{fill:#C0BBBE;fill-opacity:0.502;}
	.st121{fill:#ADA016;fill-opacity:0.502;}
	.st122{fill:#E27467;fill-opacity:0.502;}
	.st123{fill:#DCD42D;fill-opacity:0.502;}
	.st124{fill:#988980;fill-opacity:0.502;}
	.st125{fill:#CCC935;fill-opacity:0.502;}
	.st126{fill:#E1D74F;fill-opacity:0.502;}
	.st127{fill:#C53C1F;fill-opacity:0.502;}
	.st128{fill:#E3CCD7;fill-opacity:0.502;}
	.st129{fill:#DFD959;fill-opacity:0.502;}
	.st130{fill:#C1BAB2;fill-opacity:0.502;}
	.st131{fill:#E6EC7C;fill-opacity:0.502;}
	.st132{fill:#E2838C;fill-opacity:0.502;}
	.st133{fill:#645E58;fill-opacity:0.502;}
	.st134{fill:#8C582B;fill-opacity:0.502;}
	.st135{fill:#EADB4B;fill-opacity:0.502;}
	.st136{fill:#E9E657;fill-opacity:0.502;}
	.st137{fill:#6F461F;fill-opacity:0.502;}
	.st138{fill:#E4C2CF;fill-opacity:0.502;}
	.st139{fill:#EDD64C;fill-opacity:0.502;}
	.st140{fill:#E9E1EB;fill-opacity:0.502;}
	.st141{fill:#803700;fill-opacity:0.502;}
	.st142{fill:#F6FFEC;fill-opacity:0.502;}
	.st143{fill:#69411E;fill-opacity:0.502;}
	.st144{fill:#E6E7D3;fill-opacity:0.502;}
	.st145{fill:#C2C5C9;fill-opacity:0.502;}
	.st146{fill:#ACBEDA;fill-opacity:0.502;}
	.st147{fill:#EABDB6;fill-opacity:0.502;}
	.st148{fill:#A18B7C;fill-opacity:0.502;}
	.st149{fill:#E7E7EE;fill-opacity:0.502;}
	.st150{fill:#E3E6D7;fill-opacity:0.502;}
	.st151{fill:#8B8587;fill-opacity:0.502;}
	.st152{fill:#F2D7E4;fill-opacity:0.502;}
	.st153{fill:#D2E0F6;fill-opacity:0.502;}
	.st154{fill:#EDF5FF;fill-opacity:0.502;}
	.st155{fill:#E8798D;fill-opacity:0.502;}
	.st156{fill:#E06C79;fill-opacity:0.502;}
	.st157{fill:#C2C1C1;fill-opacity:0.502;}
	.st158{fill:#BABDC9;fill-opacity:0.502;}
	.st159{fill:#C8AF16;fill-opacity:0.502;}
	.st160{fill:#B2A59B;fill-opacity:0.502;}
	.st161{fill:#B7AC38;fill-opacity:0.502;}
	.st162{fill:#BD9512;fill-opacity:0.502;}
	.st163{fill:#E4ECEE;fill-opacity:0.502;}
	.st164{fill:#D4D2BE;fill-opacity:0.502;}
	.st165{fill:#F2F0EC;fill-opacity:0.502;}
	.st166{fill:#C5C4C4;fill-opacity:0.502;}
	.st167{fill:#DBE41D;fill-opacity:0.502;}
	.st168{fill:#A08108;fill-opacity:0.502;}
	.st169{fill:#CDB70B;fill-opacity:0.502;}
	.st170{fill:#9A8F89;fill-opacity:0.502;}
	.st171{fill:#E8BC30;fill-opacity:0.502;}
	.st172{fill:#CDD8E2;fill-opacity:0.502;}
	.st173{fill:#A98E1F;fill-opacity:0.502;}
	.st174{fill:#816C2F;fill-opacity:0.502;}
	.st175{fill:#ECFFB7;fill-opacity:0.502;}
	.st176{fill:#ADADAC;fill-opacity:0.502;}
	.st177{fill:#E79EAD;fill-opacity:0.502;}
	.st178{fill:#3E1B01;fill-opacity:0.502;}
	.st179{fill:#A6AE95;fill-opacity:0.502;}
	.st180{fill:#EAE84C;fill-opacity:0.502;}
	.st181{fill:#A89238;fill-opacity:0.502;}
	.st182{fill:#624A37;fill-opacity:0.502;}
	.st183{fill:#BCAC38;fill-opacity:0.502;}
	.st184{fill:#DE6677;fill-opacity:0.502;}
	.st185{fill:#D93E4D;fill-opacity:0.502;}
	.st186{fill:#E7D3DA;fill-opacity:0.502;}
	.st187{fill:#230600;fill-opacity:0.502;}
	.st188{fill:#BBB0A5;fill-opacity:0.502;}
	.st189{fill:#EA7F89;fill-opacity:0.502;}
	.st190{fill:#E46771;fill-opacity:0.502;}
	.st191{fill:#DC687D;fill-opacity:0.502;}
	.st192{fill:#E4DF7A;fill-opacity:0.502;}
	.st193{fill:#978B83;fill-opacity:0.502;}
	.st194{fill:#7D746C;fill-opacity:0.502;}
	.st195{fill:#CDD0B7;fill-opacity:0.502;}
	.st196{fill:#DED936;fill-opacity:0.502;}
	.st197{fill:#9A8324;fill-opacity:0.502;}
	.st198{fill:#8B6131;fill-opacity:0.502;}
	.st199{fill:#835513;fill-opacity:0.502;}
	.st200{fill:#A78412;fill-opacity:0.502;}
</style>
<g>
	<defs>
		<rect id="SVGID_1_" x="214" y="36.9" width="1024" height="768"/>
	</defs>
	<clipPath id="SVGID_2_">
		<use xlink:href="#SVGID_1_"  style="overflow:visible;"/>
	</clipPath>
	<g transform="scale(4.000000) translate(0.5 0.5)" class="st0">
		<rect x="53" y="8.7" class="st1" width="256" height="192"/>
		<polygon class="st2" points="272.5,186.2 56.5,216.2 37.5,57.2 		"/>
		<polygon class="st3" points="307.5,-6.8 324.5,206.2 79.5,24.2 		"/>
		<polygon class="st4" points="292.5,177.2 237.5,51.2 72.5,123.2 		"/>
		<polygon class="st5" points="123.5,47.2 37.5,94.2 134.5,98.2 		"/>
		<polygon class="st6" points="207.5,200.2 284.5,164.2 141.5,134.2 		"/>
		<polygon class="st7" points="89.5,110.2 44.5,98.2 138.5,87.2 		"/>
		<polygon class="st8" points="222.5,61.2 254.5,122.2 192.5,93.2 		"/>
		<polygon class="st9" points="176.5,47.2 83.5,134.2 142.5,181.2 		"/>
		<polygon class="st10" points="179.5,214.2 38.5,129.2 52.5,201.2 		"/>
		<polygon class="st11" points="195.5,105.2 209.5,174.2 232.5,134.2 		"/>
		<polygon class="st12" points="177.5,161.2 152.5,77.2 190.5,128.2 		"/>
		<polygon class="st13" points="135.5,-6.8 43.5,69.2 324.5,52.2 		"/>
		<polygon class="st14" points="281.5,159.2 298.5,94.2 245.5,57.2 		"/>
		<polygon class="st15" points="113.5,93.2 37.5,97.2 65.5,60.2 		"/>
		<polygon class="st16" points="252.5,216.2 81.5,180.2 37.5,88.2 		"/>
		<polygon class="st17" points="268.5,120.2 239.5,138.2 247.5,173.2 		"/>
		<polygon class="st18" points="233.5,130.2 208.5,189.2 246.5,185.2 		"/>
		<polygon class="st19" points="324.5,0.2 173.5,-6.8 324.5,111.2 		"/>
		<polygon class="st20" points="205.5,180.2 176.5,184.2 197.5,127.2 		"/>
		<polygon class="st21" points="114.5,44.2 136.5,72.2 101.5,90.2 		"/>
		<polygon class="st22" points="284.5,167.2 271.5,136.2 238.5,188.2 		"/>
		<polygon class="st23" points="281.5,115.2 243.5,68.2 265.5,126.2 		"/>
		<polygon class="st24" points="37.5,79.2 122.5,50.2 102.5,-6.8 		"/>
		<polygon class="st25" points="231.5,138.2 215.5,88.2 142.5,90.2 		"/>
		<polygon class="st26" points="324.5,210.2 250.5,192.2 316.5,135.2 		"/>
		<polygon class="st27" points="86.5,105.2 119.5,97.2 135.5,78.2 		"/>
		<polygon class="st28" points="213.5,80.2 205.5,59.2 207.5,90.2 		"/>
		<polygon class="st29" points="142.5,114.2 193.5,142.2 181.5,170.2 		"/>
		<polygon class="st30" points="94.5,20.2 83.5,35.2 37.5,17.2 		"/>
		<polygon class="st31" points="209.5,52.2 174.5,141.2 131.5,67.2 		"/>
		<polygon class="st32" points="219.5,75.2 208.5,126.2 243.5,67.2 		"/>
		<polygon class="st33" points="205.5,68.2 165.5,118.2 168.5,94.2 		"/>
		<polygon class="st34" points="214.5,89.2 198.5,124.2 204.5,153.2 		"/>
		<polygon class="st35" points="80.5,35.2 78.5,53.2 69.5,24.2 		"/>
		<polygon class="st36" points="150.5,141.2 167.5,113.2 172.5,158.2 		"/>
		<polygon class="st37" points="203.5,158.2 218.5,131.2 215.5,186.2 		"/>
		<polygon class="st38" points="85.5,98.2 114.5,91.2 91.5,58.2 		"/>
		<polygon class="st39" points="51.5,162.2 97.5,199.2 40.5,216.2 		"/>
		<polygon class="st40" points="198.5,178.2 178.5,201.2 266.5,193.2 		"/>
		<polygon class="st41" points="153.5,118.2 153.5,89.2 191.5,135.2 		"/>
		<polygon class="st42" points="177.5,-5.8 138.5,145.2 124.5,-2.8 		"/>
		<polygon class="st43" points="250.5,168.2 230.5,99.2 230.5,139.2 		"/>
		<polygon class="st44" points="201.5,108.2 176.5,123.2 203.5,79.2 		"/>
		<polygon class="st45" points="53.5,20.2 52.5,68.2 61.5,42.2 		"/>
		<polygon class="st46" points="285.5,150.2 289.5,102.2 273.5,135.2 		"/>
		<polygon class="st47" points="104.5,8.2 99.5,16.2 109.5,35.2 		"/>
		<polygon class="st48" points="242.5,129.2 259.5,132.2 238.5,85.2 		"/>
		<polygon class="st49" points="113.5,109.2 131.5,70.2 135.5,85.2 		"/>
		<polygon class="st50" points="241.5,95.2 260.5,120.2 244.5,77.2 		"/>
		<polygon class="st51" points="181.5,72.2 147.5,98.2 172.5,88.2 		"/>
		<polygon class="st52" points="306.5,155.2 324.5,41.2 285.5,74.2 		"/>
		<polygon class="st53" points="212.5,191.2 198.5,182.2 202.5,155.2 		"/>
		<polygon class="st54" points="243.5,36.2 214.5,28.2 230.5,77.2 		"/>
		<polygon class="st55" points="285.5,138.2 286.5,153.2 295.5,138.2 		"/>
		<polygon class="st56" points="110.5,97.2 85.5,106.2 71.5,100.2 		"/>
		<polygon class="st57" points="108.5,112.2 180.5,193.2 37.5,100.2 		"/>
		<polygon class="st58" points="215.5,169.2 222.5,190.2 231.5,140.2 		"/>
		<polygon class="st59" points="256.5,69.2 261.5,83.2 277.5,91.2 		"/>
		<polygon class="st60" points="80.5,101.2 49.5,95.2 69.5,62.2 		"/>
		<polygon class="st61" points="53.5,39.2 62.5,52.2 60.5,63.2 		"/>
		<polygon class="st62" points="221.5,66.2 227.5,118.2 217.5,93.2 		"/>
		<polygon class="st63" points="98.5,45.2 99.5,31.2 93.5,20.2 		"/>
		<polygon class="st64" points="151.5,158.2 144.5,88.2 108.5,122.2 		"/>
		<polygon class="st65" points="223.5,113.2 230.5,81.2 232.5,119.2 		"/>
		<polygon class="st66" points="68.5,59.2 72.5,47.2 78.5,71.2 		"/>
		<polygon class="st67" points="67.5,25.2 49.5,16.2 63.5,34.2 		"/>
		<polygon class="st68" points="259.5,180.2 276.5,173.2 258.5,149.2 		"/>
		<polygon class="st69" points="224.5,55.2 258.5,61.2 280.5,82.2 		"/>
		<polygon class="st70" points="206.5,99.2 214.5,76.2 216.5,87.2 		"/>
		<polygon class="st71" points="89.5,53.2 100.5,68.2 89.5,34.2 		"/>
		<polygon class="st72" points="189.5,142.2 203.5,114.2 170.5,151.2 		"/>
		<polygon class="st73" points="324.5,10.2 104.5,-2.8 123.5,52.2 		"/>
		<polygon class="st74" points="198.5,62.2 185.5,58.2 159.5,77.2 		"/>
		<polygon class="st75" points="169.5,117.2 184.5,95.2 172.5,135.2 		"/>
		<polygon class="st76" points="231.5,40.2 213.5,76.2 204.5,23.2 		"/>
		<polygon class="st77" points="263.5,147.2 274.5,151.2 267.5,133.2 		"/>
		<polygon class="st78" points="88.5,26.2 86.5,64.2 76.5,20.2 		"/>
		<polygon class="st79" points="110.5,83.2 101.5,73.2 109.5,56.2 		"/>
		<polygon class="st80" points="152.5,111.2 159.5,127.2 149.5,141.2 		"/>
		<polygon class="st81" points="134.5,67.2 114.5,52.2 108.5,15.2 		"/>
		<polygon class="st82" points="169.5,134.2 191.5,131.2 202.5,110.2 		"/>
		<polygon class="st83" points="239.5,105.2 237.5,65.2 229.5,75.2 		"/>
		<polygon class="st84" points="67.5,21.2 37.5,13.2 46.5,-0.8 		"/>
		<polygon class="st85" points="55.5,86.2 63.5,69.2 38.5,69.2 		"/>
		<polygon class="st86" points="182.5,67.2 177.5,78.2 188.5,68.2 		"/>
		<polygon class="st87" points="102.5,24.2 94.5,10.2 99.5,31.2 		"/>
		<polygon class="st88" points="228.5,118.2 206.5,127.2 216.5,81.2 		"/>
		<polygon class="st89" points="204.5,67.2 160.5,111.2 168.5,87.2 		"/>
		<polygon class="st90" points="94.5,58.2 80.5,89.2 71.5,74.2 		"/>
		<polygon class="st91" points="177.5,111.2 191.5,82.2 204.5,80.2 		"/>
		<polygon class="st92" points="270.5,98.2 240.5,63.2 236.5,78.2 		"/>
		<polygon class="st63" points="286.5,102.2 289.5,92.2 278.5,82.2 		"/>
		<polygon class="st93" points="247.5,186.2 281.5,170.2 273.5,216.2 		"/>
		<polygon class="st94" points="210.5,72.2 209.5,63.2 197.5,76.2 		"/>
		<polygon class="st95" points="95.5,89.2 99.5,96.2 109.5,91.2 		"/>
		<polygon class="st96" points="254.5,104.2 250.5,168.2 265.5,131.2 		"/>
		<polygon class="st97" points="113.5,87.2 114.5,105.2 125.5,86.2 		"/>
		<polygon class="st98" points="187.5,214.2 117.5,216.2 37.5,116.2 		"/>
		<polygon class="st99" points="229.5,32.2 141.5,77.2 115.5,39.2 		"/>
		<polygon class="st100" points="171.5,137.2 181.5,140.2 175.5,166.2 		"/>
		<polygon class="st101" points="104.5,64.2 93.5,42.2 103.5,51.2 		"/>
		<polygon class="st102" points="72.5,99.2 72.5,109.2 46.5,94.2 		"/>
		<polygon class="st103" points="144.5,132.2 106.5,132.2 170.5,180.2 		"/>
		<polygon class="st104" points="224.5,67.2 217.5,74.2 223.5,55.2 		"/>
		<polygon class="st105" points="261.5,141.2 255.5,158.2 273.5,164.2 		"/>
		<polygon class="st106" points="79.5,104.2 75.5,154.2 177.5,197.2 		"/>
		<polygon class="st107" points="265.5,120.2 264.5,132.2 276.5,143.2 		"/>
		<polygon class="st108" points="271.5,214.2 226.5,184.2 195.5,207.2 		"/>
		<polygon class="st109" points="220.5,141.2 221.5,151.2 231.5,131.2 		"/>
		<polygon class="st110" points="226.5,143.2 240.5,178.2 240.5,152.2 		"/>
		<polygon class="st111" points="114.5,53.2 105.5,37.2 106.5,61.2 		"/>
		<polygon class="st112" points="177.5,170.2 198.5,138.2 207.5,172.2 		"/>
		<polygon class="st113" points="296.5,135.2 292.5,100.2 285.5,143.2 		"/>
		<polygon class="st114" points="162.5,78.2 178.5,60.2 153.5,75.2 		"/>
		<polygon class="st115" points="227.5,78.2 228.5,95.2 238.5,82.2 		"/>
		<polygon class="st116" points="145.5,112.2 154.5,92.2 151.5,121.2 		"/>
		<polygon class="st117" points="92.5,61.2 81.5,96.2 96.5,98.2 		"/>
		<polygon class="st118" points="204.5,157.2 199.5,124.2 211.5,135.2 		"/>
		<polygon class="st119" points="87.5,48.2 85.5,70.2 92.5,57.2 		"/>
		<polygon class="st120" points="222.5,79.2 229.5,33.2 270.5,26.2 		"/>
		<polygon class="st121" points="68.5,99.2 55.5,83.2 68.5,59.2 		"/>
		<polygon class="st122" points="244.5,78.2 252.5,67.2 236.5,74.2 		"/>
		<polygon class="st123" points="109.5,55.2 125.5,56.2 129.5,79.2 		"/>
		<polygon class="st124" points="138.5,164.2 219.5,198.2 164.5,191.2 		"/>
		<polygon class="st125" points="155.5,123.2 164.5,122.2 174.5,107.2 		"/>
		<polygon class="st126" points="223.5,113.2 218.5,104.2 216.5,132.2 		"/>
		<polygon class="st127" points="233.5,106.2 237.5,93.2 232.5,88.2 		"/>
		<polygon class="st128" points="254.5,87.2 276.5,91.2 248.5,74.2 		"/>
		<polygon class="st129" points="278.5,95.2 293.5,110.2 283.5,105.2 		"/>
		<polygon class="st130" points="121.5,126.2 162.5,55.2 145.5,122.2 		"/>
		<polygon class="st131" points="248.5,179.2 254.5,160.2 237.5,137.2 		"/>
		<polygon class="st132" points="240.5,89.2 247.5,139.2 258.5,126.2 		"/>
		<polygon class="st133" points="80.5,163.2 37.5,170.2 133.5,216.2 		"/>
		<polygon class="st134" points="268.5,175.2 215.5,177.2 231.5,190.2 		"/>
		<polygon class="st135" points="195.5,119.2 206.5,103.2 197.5,129.2 		"/>
		<polygon class="st136" points="271.5,126.2 261.5,121.2 255.5,103.2 		"/>
		<polygon class="st137" points="155.5,157.2 161.5,151.2 173.5,163.2 		"/>
		<polygon class="st138" points="219.5,105.2 217.5,122.2 215.5,114.2 		"/>
		<polygon class="st139" points="245.5,79.2 247.5,91.2 256.5,99.2 		"/>
		<polygon class="st140" points="262.5,128.2 258.5,147.2 238.5,143.2 		"/>
		<polygon class="st141" points="218.5,82.2 221.5,71.2 223.5,95.2 		"/>
		<polygon class="st142" points="105.5,30.2 107.5,21.2 113.5,38.2 		"/>
		<polygon class="st143" points="174.5,177.2 191.5,185.2 178.5,170.2 		"/>
		<polygon class="st144" points="168.5,110.2 153.5,100.2 153.5,125.2 		"/>
		<polygon class="st145" points="279.5,171.2 315.5,143.2 318.5,97.2 		"/>
		<polygon class="st146" points="107.5,-6.8 90.5,19.2 86.5,-6.8 		"/>
		<polygon class="st147" points="161.5,94.2 204.5,70.2 205.5,51.2 		"/>
		<polygon class="st148" points="122.5,102.2 94.5,128.2 96.5,104.2 		"/>
		<polygon class="st149" points="289.5,112.2 286.5,145.2 277.5,94.2 		"/>
		<polygon class="st150" points="242.5,79.2 239.5,85.2 252.5,97.2 		"/>
		<polygon class="st151" points="127.5,65.2 134.5,78.2 142.5,70.2 		"/>
		<polygon class="st152" points="157.5,80.2 157.5,90.2 179.5,69.2 		"/>
		<polygon class="st153" points="61.5,67.2 37.5,62.2 50.5,43.2 		"/>
		<polygon class="st154" points="96.5,55.2 100.5,58.2 99.5,66.2 		"/>
		<polygon class="st155" points="273.5,111.2 265.5,119.2 248.5,81.2 		"/>
		<polygon class="st156" points="178.5,116.2 206.5,85.2 191.5,121.2 		"/>
		<polygon class="st157" points="309.5,75.2 188.5,47.2 276.5,43.2 		"/>
		<polygon class="st158" points="71.5,50.2 59.5,64.2 64.5,41.2 		"/>
		<polygon class="st159" points="131.5,79.2 94.5,74.2 107.5,93.2 		"/>
		<polygon class="st160" points="288.5,186.2 250.5,179.2 268.5,214.2 		"/>
		<polygon class="st161" points="99.5,16.2 100.5,6.2 81.5,28.2 		"/>
		<polygon class="st162" points="207.5,173.2 214.5,190.2 217.5,181.2 		"/>
		<polygon class="st163" points="99.5,49.2 99.5,38.2 92.5,28.2 		"/>
		<polygon class="st164" points="85.5,57.2 83.5,38.2 78.5,49.2 		"/>
		<polygon class="st165" points="273.5,87.2 256.5,63.2 287.5,88.2 		"/>
		<polygon class="st166" points="141.5,84.2 136.5,52.2 173.5,63.2 		"/>
		<polygon class="st167" points="217.5,150.2 212.5,163.2 209.5,147.2 		"/>
		<polygon class="st168" points="223.5,151.2 236.5,188.2 246.5,168.2 		"/>
		<polygon class="st169" points="73.5,75.2 79.5,97.2 86.5,80.2 		"/>
		<polygon class="st170" points="48.5,118.2 59.5,101.2 65.5,103.2 		"/>
		<polygon class="st171" points="231.5,104.2 238.5,130.2 231.5,124.2 		"/>
		<polygon class="st172" points="61.5,39.2 57.5,50.2 53.5,24.2 		"/>
		<polygon class="st173" points="197.5,126.2 191.5,180.2 173.5,165.2 		"/>
		<polygon class="st174" points="78.5,24.2 78.5,1.2 87.5,-6.8 		"/>
		<polygon class="st175" points="271.5,133.2 285.5,160.2 284.5,146.2 		"/>
		<polygon class="st176" points="308.5,58.2 256.5,-0.8 312.5,4.2 		"/>
		<polygon class="st177" points="202.5,108.2 179.5,121.2 195.5,123.2 		"/>
		<polygon class="st178" points="121.5,90.2 87.5,101.2 113.5,102.2 		"/>
		<polygon class="st179" points="74.5,25.2 56.5,0.2 82.5,6.2 		"/>
		<polygon class="st180" points="180.5,97.2 168.5,111.2 180.5,104.2 		"/>
		<polygon class="st181" points="232.5,165.2 251.5,182.2 233.5,133.2 		"/>
		<polygon class="st182" points="137.5,87.2 119.5,93.2 124.5,84.2 		"/>
		<polygon class="st183" points="61.5,42.2 63.5,21.2 74.5,16.2 		"/>
		<polygon class="st184" points="227.5,121.2 222.5,137.2 222.5,105.2 		"/>
		<polygon class="st185" points="221.5,97.2 215.5,97.2 211.5,111.2 		"/>
		<polygon class="st186" points="201.5,68.2 193.5,62.2 208.5,55.2 		"/>
		<polygon class="st187" points="93.5,100.2 77.5,104.2 79.5,97.2 		"/>
		<polygon class="st188" points="122.5,93.2 147.5,88.2 147.5,153.2 		"/>
		<polygon class="st189" points="202.5,65.2 205.5,79.2 189.5,71.2 		"/>
		<polygon class="st190" points="239.5,120.2 237.5,92.2 256.5,129.2 		"/>
		<polygon class="st191" points="191.5,82.2 171.5,94.2 168.5,108.2 		"/>
		<polygon class="st192" points="268.5,66.2 257.5,62.2 275.5,76.2 		"/>
		<polygon class="st193" points="144.5,147.2 174.5,168.2 144.5,178.2 		"/>
		<polygon class="st194" points="91.5,125.2 37.5,122.2 71.5,167.2 		"/>
		<polygon class="st195" points="88.5,40.2 86.5,25.2 93.5,23.2 		"/>
		<polygon class="st196" points="130.5,79.2 118.5,83.2 119.5,54.2 		"/>
		<polygon class="st197" points="89.5,80.2 108.5,85.2 86.5,97.2 		"/>
		<polygon class="st198" points="85.5,35.2 86.5,46.2 90.5,48.2 		"/>
		<polygon class="st199" points="80.5,100.2 70.5,96.2 73.5,83.2 		"/>
		<polygon class="st200" points="110.5,90.2 113.5,68.2 118.5,81.2 		"/>
	</g>
</g>
</svg>
